<?xml version="1.0" encoding="UTF-8"?>
<svg xmlns="http://www.w3.org/2000/svg" xmlns:xlink="http://www.w3.org/1999/xlink" width="3750" height="3750" viewBox="0 0 3750 3750">
<path fill-rule="nonzero" fill="rgb(100%, 100%, 100%)" fill-opacity="1" d="M 4.53125 0 L 3745.46875 0 C 3747.980469 0 3750 1.480469 3750 3.328125 L 3750 3746.671875 C 3750 3748.515625 3747.980469 3750 3745.46875 3750 L 4.53125 3750 C 2.019531 3750 0 3748.515625 0 3746.671875 L 0 3.328125 C 0 1.480469 2.019531 0 4.53125 0 Z M 4.53125 0 "/>
<path fill-rule="nonzero" fill="rgb(0%, 0%, 0%)" fill-opacity="1" d="M 1536.628906 456.050781 C 974.542969 456.050781 516.910156 915.890625 516.910156 1479.550781 C 516.910156 2043.199219 974.542969 2503.019531 1536.628906 2503.019531 C 1745.21875 2503.019531 1939.410156 2439.660156 2101.179688 2331.191406 L 2927.160156 3236.960938 C 2949.960938 3261.960938 2977.421875 3280.535156 3011.96875 3289.527344 C 3046.53125 3298.519531 3096.46875 3295.90625 3133.929688 3261.742188 L 3192.449219 3208.378906 C 3229.910156 3174.21875 3237.101562 3124.730469 3231.320312 3089.492188 C 3225.539062 3054.253906 3209.601562 3025.210938 3186.800781 3000.214844 L 2355.398438 2088.511719 C 2481.570312 1918.140625 2556.339844 1707.339844 2556.339844 1479.550781 C 2556.339844 915.890625 2098.710938 456.050781 1536.628906 456.050781 Z M 1536.628906 683.640625 C 1975.199219 683.640625 2328.75 1038.378906 2328.75 1479.550781 C 2328.75 1920.710938 1975.199219 2275.429688 1536.628906 2275.429688 C 1098.058594 2275.429688 744.5 1920.710938 744.5 1479.550781 C 744.5 1038.378906 1098.058594 683.640625 1536.628906 683.640625 Z M 1536.628906 683.640625 "/>
</svg>
